<svg id="Layer_1" data-name="Layer 1" xmlns="http://www.w3.org/2000/svg" width="1000" height="1000" viewBox="0 0 1000 1000"><defs><style>.cls-1{fill:#fc7f3a;}.cls-2{fill:#fff;}.cls-3{fill:#ffc41f;}.cls-4{fill:#a8542a;}.cls-5{stroke:#000;stroke-miterlimit:10;stroke-width:1.3457px;}.cls-6{fill:#458dc9;}.cls-7{fill:#ea2f2f;}</style></defs><polyline class="cls-1" points="507.429 365.253 511.22 316.707 468.565 328.485 464.151 360.166"/><path d="M509.4478,365.2526l1.2843-16.4465,2.0363-26.0771.47-6.0221a2.0346,2.0346,0,0,0-2.5553-1.9465l-14.3481,3.9618L473.3107,325.08l-5.2821,1.4585a1.9746,1.9746,0,0,0-1.41,1.41l-3.8726,27.7969-.5412,3.8848a2.0877,2.0877,0,0,0,1.41,2.4832,2.033,2.033,0,0,0,2.4832-1.41l3.8726-27.797.5412-3.8848-1.41,1.41,14.3481-3.9617,23.0246-6.3575,5.2821-1.4585-2.5552-1.9465-1.2843,16.4466-2.0364,26.0771-.47,6.022c-.2024,2.5907,3.8359,2.5776,4.0372,0Z"/><path class="cls-1" d="M510.6673,323.5466c5.3031-16.9089,19.2937-25.2136,21.909-38.4761,1.5186-7.7012-7.0666-25.5929-7.0666-25.5929l-79.1673-4.9418s-40.7208,84.9853,36.659,79.6023"/><path d="M512.6138,324.0832a56.2124,56.2124,0,0,1,8.6767-16.0457c3.2192-4.3848,6.8053-8.5438,9.5639-13.2488,2.3314-3.9764,4.25-8.5825,3.8533-13.2756a53.0908,53.0908,0,0,0-3.6405-14c-1.15-3.0615-2.4011-6.1032-3.8145-9.0538a2.0248,2.0248,0,0,0-1.743-1l-26.8173-1.674-42.6639-2.6631-9.6861-.6047a1.9665,1.9665,0,0,0-1.743,1c-1.3976,2.9194-2.5874,5.9538-3.7118,8.9864a124.5987,124.5987,0,0,0-5.73,20.2868c-1.5321,8.1648-2.1809,16.6083-.7021,24.8306,1.461,8.123,5.4176,15.5841,12.0289,20.6486,8.7157,6.6765,20.3308,8.2775,31.01,8.1232,1.8375-.0265,3.6733-.1112,5.5067-.2359,2.5782-.1754,2.5976-4.2139,0-4.0372a74.451,74.451,0,0,1-19.0519-.8016,36.8109,36.8109,0,0,1-12.9748-4.8277,23.1254,23.1254,0,0,1-4.5454-3.5729,27.5788,27.5788,0,0,1-1.9428-2.1185q-.2192-.2655-.4315-.5364c.2529.3225-.13-.1747-.2028-.2738q-.4546-.6182-.8752-1.2605-.7665-1.17-1.4173-2.4114-.3152-.5994-.6032-1.2124c-.0962-.2044-.1885-.41-.2818-.6161-.0466-.1028-.091-.2067-.1359-.31-.0965-.2227.1187.2937-.0268-.0647a36.6673,36.6673,0,0,1-1.7068-5.3648q-.3386-1.432-.5743-2.886c-.0375-.2294-.0716-.4592-.1072-.6888-.0178-.115-.0334-.23-.05-.3456.0108.0762.0524.41.0023.0167q-.0942-.74-.1674-1.4819a56.3655,56.3655,0,0,1-.2535-5.9345c.0159-1.9714.1236-3.9418.3051-5.9048.0935-1.011.2081-2.02.3376-3.0268.0426-.3309-.0316.205.0477-.3484.0337-.2353.067-.4707.102-.7058q.111-.7473.2343-1.4925a120.1075,120.1075,0,0,1,5.443-20.5676q1.2288-3.4586,2.64-6.8477c.2558-.6154-.1229.2814.0811-.1929.0825-.1918.164-.3841.2468-.5758q.2034-.4706.4115-.9392a11.3176,11.3176,0,0,0,.5133-1.1285,1.1649,1.1649,0,0,1,.0678-.1435l-1.743,1,26.8173,1.674,42.6638,2.6632,9.6862.6046-1.743-1c1.1325,2.3643,1.9843,4.4136,2.916,6.805a60.0417,60.0417,0,0,1,3.8787,13.2155c.5936,4.2213-.8029,8.0884-3.0385,11.9683-2.6018,4.5156-5.9958,8.5162-9.1021,12.6821a61.0685,61.0685,0,0,0-9.7,17.8426c-.7908,2.4813,3.1057,3.5434,3.893,1.0733Z"/><path d="M502.8344,295.9127c.022-.0546.0454-.1086.0675-.1632.03-.0744-.1151.2667-.0074.0188.0406-.0937.081-.1875.1221-.281q.36-.82.7557-1.6244a34.7166,34.7166,0,0,1,2.6255-4.55,14.6991,14.6991,0,0,1,1.633-2.008,6.1041,6.1041,0,0,1,1.8053-1.3892c.0354-.0182.2531-.1158.1541-.0747s.1187-.0426.1554-.0544a4.98,4.98,0,0,1,.5159-.1332c.1931-.04-.1453,0,.0507-.0037.08-.0015.16-.0084.24-.0077s.16.0068.24.0122c-.207-.014.0041,0,.0924.021a3.3706,3.3706,0,0,1,1.2783.5946c.0387.03.3228.3226.2867.2755a2.2829,2.2829,0,0,1,.163.2588c.0759.1328.01-.0327.07.1612a2.1227,2.1227,0,0,1,.0515.943,6.13,6.13,0,0,1-.1707.6212c-.0343.0989-.0712.1971-.1113.2937.0723-.1741-.0292.0569-.0572.1134a7.9616,7.9616,0,0,1-.5.8741c-.0594.09-.124.1753-.1842.2642-.1283.19.0794-.1.065-.0819a1.04,1.04,0,0,0,0,1.4273,1.0164,1.0164,0,0,0,1.4273,0,6.4424,6.4424,0,0,0,1.5827-3.9841,4.2121,4.2121,0,0,0-4.6328-3.7894c-1.958.2117-3.53,1.6519-4.7337,3.1088a29.2591,29.2591,0,0,0-3.3494,5.2146c-.5752,1.11-1.1135,2.2454-1.5816,3.4056a1.0159,1.0159,0,0,0,.705,1.2415,1.0338,1.0338,0,0,0,1.2415-.7049Z"/><path class="cls-2" d="M549.8353,363.2962l.78-16.7725c.3566-7.6673,6.6212-13.945,14.8424-14.8732l109.3584-11.7536-7.6929,25.8759L679.012,381.44,567.6527,370.4256"/><path d="M551.8539,363.2962l.6965-14.9794a15.755,15.755,0,0,1,1.8752-7.6456,15.0089,15.0089,0,0,1,10.4922-6.92c1.57-.2658,3.1789-.3653,4.7608-.5353l11.6707-1.2544,36.0544-3.875,37.4467-4.0248,13.1947-1.4181c2.1361-.23,4.3611-.3058,6.4756-.696.0964-.0178.1975-.0212.2952-.0317l-1.9465-2.5552-3.4907,11.7415c-1.37,4.6076-2.9055,9.1989-4.1179,13.8508a4.2381,4.2381,0,0,0,.3516,2.6644l1.8844,5.6533,5.7142,17.1426,3.8545,11.5634,1.9465-2.5552-11.0457-1.0925-26.6555-2.6364-32.1317-3.178-27.7864-2.7482-9.17-.907c-1.4491-.1434-2.927-.388-4.3834-.4336-.0619-.0019-.1246-.0123-.1863-.0184a2.0327,2.0327,0,0,0-2.0186,2.0186,2.063,2.063,0,0,0,2.0186,2.0186l11.0456,1.0925,26.6556,2.6364,32.1316,3.178,27.7865,2.7482,9.17.907c1.4491.1434,2.9269.388,4.3833.4336.0619.0019.1247.0123.1864.0184a2.03,2.03,0,0,0,1.9465-2.5552l-10.4007-31.202-1.4883-4.4649V346.31l6.722-22.61.9709-3.2656a2.0316,2.0316,0,0,0-1.9465-2.5552L658.1,319.6749l-36.9691,3.9734-37.4543,4.0255c-6.0564.6509-12.12,1.2567-18.1712,1.953-8.8075,1.0134-16.3348,7.5949-16.899,16.7282-.3132,5.07-.4741,10.1541-.71,15.2286l-.08,1.7126c-.1208,2.5973,3.9167,2.5912,4.0372,0Z"/><polygon points="25 579.11 747.349 499.042 678.261 605.952 25 579.11"/><path d="M25,581.1288l19.3312-2.1428,52.6065-5.8311,77.8032-8.6241,94.92-10.5214,103.6-11.4834,104.9271-11.6307,97.8338-10.8443,82.4156-9.1353,59.6547-6.6125,18.4119-2.0408c3.1507-.3493,6.53-.3993,9.6328-1.0678.3907-.0841.8137-.09,1.2122-.1343l-1.743-3.0375-23.3843,36.1861-37.089,57.3934-8.6145,13.33,1.743-1L660.69,603.211l-47.3485-1.9455-70.5257-2.8978-85.741-3.5229-93.9017-3.8583-94.7808-3.8943-88.3789-3.6314-74.695-3.0691-53.73-2.2076c-8.4947-.3491-17.0153-.9258-25.5172-1.0485-.3569-.0051-.7144-.0293-1.0711-.044-2.598-.1067-2.5931,3.9307,0,4.0372l24.7689,1.0177,65.9186,2.7085,94.486,3.8822,110.1117,4.5243,113.5323,4.6649,104.7913,4.3057,83.1086,3.4147,48.8435,2.0069c2.37.0974,5.2736.6874,7.6323.3136,1.9758-.3131,2.9579-2.7721,3.9617-4.3254l9.0133-13.9477,53.8748-83.3686,4.0487-6.2651c.774-1.1978-.22-3.2063-1.743-3.0374l-19.3311,2.1427L675.411,504.997l-77.8032,8.6241-94.92,10.5214L399.0881,535.6259,294.161,547.2565l-97.8338,10.8444-82.4156,9.1353-59.6547,6.6124c-9.3481,1.0362-18.7,2.0458-28.0447,3.1086-.404.046-.8082.09-1.2122.1344C22.446,577.3747,22.4172,581.4151,25,581.1288Z"/><polygon class="cls-3" points="747.349 499.042 653.455 410.035 25 579.11 747.349 499.042"/><path d="M748.7761,497.6143l-59.6327-56.5287-30.8079-29.2043c-1.4468-1.3715-3.2777-3.958-5.4432-3.7859a11.8476,11.8476,0,0,0-1.9722.5305l-36.2518,9.753L541.8815,437.961l-96.3506,25.9215L336.599,493.1888,228.2272,522.3444l-95.9908,25.8248L60.6039,567.4407l-34.64,9.3194-1.5.4036c-2.124.5714-1.7846,4.2224.5366,3.9651l19.3312-2.1428,52.6065-5.8311,77.8032-8.6241,94.92-10.5214,103.6-11.4834,104.9271-11.6307,97.8338-10.8443,82.4156-9.1353,59.6547-6.6125c9.3481-1.0361,18.7-2.0458,28.0447-3.1086.404-.0459.8082-.0895,1.2122-.1343,2.554-.2831,2.5828-4.3235,0-4.0372l-19.3311,2.1427L675.411,504.997l-77.8032,8.6241-94.92,10.5214L399.0881,535.6259,294.161,547.2565l-97.8338,10.8444-82.4156,9.1353-59.6547,6.6124L35.845,575.89c-3.1545.35-6.5246.4087-9.6328,1.0677-.3914.083-.8134.09-1.2122.1344l.5366,3.9651,16.802-4.52,45.7269-12.302,67.6332-18.1956,82.521-22.2009L328.61,499.52l91.2411-24.5468,85.0732-22.8876,71.8869-19.34,51.682-13.9041,16.0709-4.3236a79.03,79.03,0,0,0,8.3877-2.2566,9.7842,9.7842,0,0,1,1.0395-.28l-1.964-.5191,31.7493,30.0967,50.5755,47.943,11.5692,10.967C747.8065,502.2561,750.6664,499.4062,748.7761,497.6143Z"/><path class="cls-4" d="M453.4505,442.812,334.0394,511.9c-30.0736,12.3909-59.92-5.8823-73.087-33.1236L199.9193,352.51l51.1162-25.4187,62.2823,130.3092,94.63-73.87a44.1391,44.1391,0,0,1,30.2034-9.2408l24.9166,1.7218"/><path d="M452.4316,441.069l-15.4033,8.912-35.3424,20.4482-38.98,22.553-26.3169,15.2263a32.5634,32.5634,0,0,1-7.16,3.3033,49.0915,49.0915,0,0,1-32.4427-1.02c-15.82-6.0282-27.5187-19.1387-34.7492-34.0972l-11.2016-23.1741-18.9994-39.3063-18.8649-39.0283-10.7983-22.34-.51-1.0552-.7242,2.7619,17.2287-8.5674,27.5893-13.7194,6.2982-3.1319-2.7618-.7242,6.204,12.98,14.8954,31.1647L288.4038,409.94l15.5146,32.46,5.1272,10.7274c.8024,1.6788,1.5259,3.4328,2.4209,5.0652.04.073.0724.1513.1083.2265.62,1.2975,2.2406,1.1344,3.17.4086l15.5309-12.1237,33.545-26.1859,32.6254-25.468,10.0894-7.876a59.342,59.342,0,0,1,8.7547-6.0191,41.968,41.968,0,0,1,18.4075-4.9294,79.3785,79.3785,0,0,1,8.0088.3283l19.84,1.371,1.521.1051c2.5931.1792,2.5819-3.8588,0-4.0372l-16.9408-1.1707q-3.8137-.2636-7.6273-.527a46.9552,46.9552,0,0,0-15.3612,1.4494,50.0758,50.0758,0,0,0-17.841,9.3132l-8.224,6.42-31.2563,24.3993-34.7782,27.1485L318.4275,450.87c-2.07,1.6156-4.2815,3.14-6.25,4.8793-.09.08-.1915.1495-.2865.2236l3.17.4086-6.204-12.98-14.8954-31.1647L275.95,374.5519l-15.5146-32.46-5.1272-10.7273c-.8024-1.6789-1.5259-3.4329-2.4209-5.0652-.04-.0731-.0724-.1514-.1083-.2266a2.0545,2.0545,0,0,0-2.7619-.7242l-17.2286,8.5673-27.5893,13.7194-6.2982,3.132a2.0587,2.0587,0,0,0-.7242,2.7618l7.76,16.0533,17.855,36.9389L243.5553,447.41,257.2009,475.64c.7829,1.62,1.5524,3.2465,2.3527,4.8576a72.2612,72.2612,0,0,0,21.9686,26.1884,56.8838,56.8838,0,0,0,31.0109,11.1505,52.0942,52.0942,0,0,0,17.38-2.3105A27.5129,27.5129,0,0,0,335.6,513.33l20.25-11.7163,37.5486-21.7247,38.1106-22.05,21.93-12.6881,1.03-.5962c2.2481-1.3007.2176-4.7909-2.0377-3.486Z"/><path class="cls-4" d="M438.1511,374.29a44.14,44.14,0,0,0-30.2034,9.2406l-94.63,73.87-43.1949-90.3741c-6.8692,5.1644-17.02,11.0726-28.7762,16.4685-7.9289,3.6392-39.1628,8.3857-45.8667,10.476l30.5852,101.5367c11.3395,35.1076,46.7416,56.6383,102.4512,31.306l124.2059-66.8495,10.3454-83.9525Z"/><path d="M438.1511,372.2715a46.3753,46.3753,0,0,0-30.8633,9.239c-1.2462.9469-2.4712,1.9228-3.7049,2.8858L383.35,400.1906l-29.7222,23.2018L326.01,444.9516l-9.3968,7.3353c-1.489,1.1624-3.1338,2.2482-4.5231,3.5309-.0613.0566-.1335.1042-.1994.1557l3.17.4085-4.28-8.9557-10.34-21.6337-12.4571-26.0632-10.7764-22.5469c-1.74-3.6414-3.2767-7.5064-5.2674-11.0205-.0278-.0492-.0492-.1031-.0736-.1542a2.023,2.023,0,0,0-2.7619-.7241,135.8267,135.8267,0,0,1-17.4753,10.8727c-3.7063,1.98-7.474,3.8595-11.3009,5.5958-.0782.0355-.5479.2338-.0871.0435-.1561.0645-.3131.1278-.4713.1873-.2877.1081-.5758.2146-.866.3157-.8844.3078-1.7808.58-2.6808.8385-9.6387,2.7635-19.62,4.3831-29.45,6.3a114.9447,114.9447,0,0,0-11.8291,2.5874,2.0491,2.0491,0,0,0-1.41,2.4831l2.7264,9.051,6.6539,22.09,8.2939,27.5341,7.6463,25.3842,4.711,15.6395a72.45,72.45,0,0,0,8.2334,18.3075A58.5123,58.5123,0,0,0,255.0237,533.56c10.7808,5.2932,22.9362,7.0075,34.8438,6.066a103.022,103.022,0,0,0,21.6266-4.188,112.8958,112.8958,0,0,0,18.1406-6.9347c2.6715-1.3487,5.28-2.8416,7.9147-4.26l17.7724-9.5653,23.6765-12.7431,25.6263-13.7925,23.6222-12.7138,17.6642-9.5071c2.5621-1.379,5.2759-2.626,7.7453-4.1686,1.157-.7229,1.1312-2.1666,1.2824-3.3936l.847-6.8734,3.0087-24.4159,3.488-28.3045,2.4462-19.8515.3577-2.9023c.14-1.135-1.0412-1.9511-2.0186-2.0186l-21.833-1.5087-3.0836-.2131c-2.5931-.1792-2.582,3.8588,0,4.0372l21.8329,1.5087,3.0837.2131-2.0186-2.0186-3.5166,28.5369-5.5581,45.1044-1.2707,10.3112,1-1.743-14.9044,8.0218-34.6743,18.6622-39.2781,21.14-29.0351,15.6272c-2.01,1.0815-4.0051,2.1956-6.0312,3.246a84.3341,84.3341,0,0,1-9.0894,3.8154,119.62,119.62,0,0,1-17.7778,5.2447c-18.0542,3.76-37.6058,2.1046-52.6756-9.3346-10.1359-7.6939-17.0041-18.977-20.6416-31.0528L219.13,465.4862,206.3081,422.92l-8.4559-28.0719-.4257-1.4131-1.41,2.4831a102.5437,102.5437,0,0,1,10.3957-2.3068c5.1072-1.0043,10.2225-1.9668,15.3242-2.9984,4.8148-.9736,9.6378-1.9693,14.3808-3.2544a75.0869,75.0869,0,0,0,14.518-6.13A142.2914,142.2914,0,0,0,271.1417,368.77l-2.7618-.7242,4.28,8.9557L283,398.6349l12.4571,26.0632,10.7764,22.5469c1.74,3.6414,3.2767,7.5064,5.2674,11.02.0278.0492.0492.1031.0736.1542.62,1.2974,2.2407,1.1343,3.17.4085l11.2853-8.81L352.3151,429.5l29.83-23.286,22.2073-17.3355q2.3758-1.8548,4.7519-3.7095a42.9687,42.9687,0,0,1,20.9516-8.6757,45.1035,45.1035,0,0,1,8.0951-.1849C440.7454,376.4746,440.7354,372.4368,438.1511,372.2715Z"/><path d="M195.1658,393.8124c1.5,3.2685,10.9834,2.379,23.9182-1.6541l-7.358-15.2223C200.4088,384.0439,193.6782,390.571,195.1658,393.8124Z"/><path d="M193.4228,394.8312c1.5311,3.0925,6.0585,3.1217,8.9775,2.9411a74.3841,74.3841,0,0,0,17.22-3.6675,2.0521,2.0521,0,0,0,1.2064-2.9653l-7.358-15.2223a2.035,2.035,0,0,0-2.7618-.7242c-4.89,3.0834-9.8766,6.4206-13.8954,10.6184-2.2662,2.3671-4.8377,5.6008-3.389,9.02a2.0308,2.0308,0,0,0,2.7619.7242,2.0728,2.0728,0,0,0,.7242-2.7619c.21.4962.0885.1866.0609.06-.0529-.2428.0151.46.0119.0818-.001-.1155.0046-.23.0089-.345.0092-.2455-.124.4774.0081.0279.0417-.1419.2115-.6813.1551-.5388-.0977.2467.0993-.2077.1235-.2528.0769-.1435.1524-.2872.2339-.4282a16.7342,16.7342,0,0,1,2.987-3.5679,73.9384,73.9384,0,0,1,12.2466-9.1513l-2.7618-.7242,7.358,15.2223,1.2064-2.9653a74.5825,74.5825,0,0,1-15.263,3.456,26.7554,26.7554,0,0,1-2.7765.1173c-.4-.0061-.7995-.0275-1.1988-.0576a2.5526,2.5526,0,0,1-.6268-.0831c-.3089-.0617-.6092-.1387-.9118-.2252a3.6242,3.6242,0,0,1-.4025-.1428c.41.1718.0678.0166-.0172-.032-.1066-.0609-.21-.1247-.3125-.1924.183.121.26.1446.0379.01-.2144-.13-.1313-.13.0211.0622a1.84,1.84,0,0,1-.1884-.3306C195.7561,390.4651,192.2727,392.5081,193.4228,394.8312Z"/><path class="cls-1" d="M264.13,354.4877l-13.0942-27.3961-53.33,13.1023,7.4015,28.2605,6.7287,26.2418c6.7039-2.09,21.5821-7.5618,29.511-11.201,11.7564-5.3959,21.907-11.3041,28.7762-16.4685Z"/><path d="M265.8727,353.4689l-11.4539-23.9642-1.64-3.4319a2.0418,2.0418,0,0,0-2.28-.9277l-18.0767,4.4412L203.76,336.628l-6.5914,1.6194a2.0488,2.0488,0,0,0-1.41,2.4832l6.245,23.8447c1.6765,6.4011,3.31,12.8132,4.9532,19.2228l2.932,11.4347a2.0407,2.0407,0,0,0,2.4831,1.41c7.2728-2.2769,14.4352-4.9816,21.5084-7.8116a194.1165,194.1165,0,0,0,24.89-12.02,123.522,123.522,0,0,0,12.3709-8.0412,2.0947,2.0947,0,0,0,.7242-2.7619l-5.9932-12.5389c-1.12-2.3431-4.602-.2973-3.486,2.0376l5.9932,12.539.7241-2.7618C255.058,375.8,238.72,382.9411,222.3335,388.94c-3.6531,1.3373-7.3213,2.6477-11.0344,3.81l2.4831,1.41-6.0911-23.7554c-1.6979-6.6219-3.4513-13.23-5.1833-19.8426l-2.8558-10.9043-1.41,2.4831,18.0767-4.4411,28.6619-7.0418,6.5914-1.6194-2.28-.9277,11.4539,23.9642,1.64,3.4319C263.5066,357.85,266.9887,355.8038,265.8727,353.4689Z"/><path class="cls-1" d="M206.4527,374.51l-6.295-22.2569,4.5174-43.5407s7.7118-15.9852-8.084-26.4369c16.5274-25.3066,42.6506-18.2934,46.2083,6.1348,1.4513,9.965,3.0976,18.273,4.5384,24.6177a111.543,111.543,0,0,0,8.2342,23.6146l5.3213,11.0736"/><path d="M208.3992,373.9736l-3.7554-13.2779L202.51,353.15a12.211,12.211,0,0,0-.4015-1.42c.6012-.0032-.0664.79.0821.389a2.3325,2.3325,0,0,0,.0534-.5149l3.2713-31.53,1.1788-11.362-.2756,1.0188a23,23,0,0,0-.8493-21.1863,26.0014,26.0014,0,0,0-7.9589-8.0124l.7242,2.7618c4.5351-6.8855,11.0534-13.1427,19.443-14.6424a18.423,18.423,0,0,1,16.977,6.1117c6.1539,6.8882,6.333,16.5313,7.878,25.1572,1.9392,10.8268,4.2963,21.5569,8.5278,31.75,2.4066,5.7969,5.2728,11.4094,7.99,17.0647,1.1249,2.341,4.6072.2956,3.486-2.0376-2.2416-4.6648-4.5818-9.2955-6.6864-14.0243-4.7122-10.5875-7.2542-21.8387-9.311-33.1937q-.83-4.5836-1.5324-9.1888a53.6473,53.6473,0,0,0-1.3989-7.1865,29.4988,29.4988,0,0,0-5.66-10.6885,22.4037,22.4037,0,0,0-19.2331-7.9513c-10.3494,1.0738-18.4526,8.42-23.9668,16.7923a2.0554,2.0554,0,0,0,.7242,2.7619c4.53,3.0423,7.932,7.39,8.784,12.8681a19.3019,19.3019,0,0,1,.1819,2.8783q-.0053.7377-.0607,1.4741-.024.3258-.0574.6508c-.01.0976-.0853.7046-.0431.4007a23.3193,23.3193,0,0,1-1.0133,4.26c-.1371.4052-.3023.7982-.4484,1.2.342-.9393-.21.6281-.2227.6938-.0926.4613-.1069.9508-.1553,1.4173l-.8264,7.9654-2.5392,24.474-.8748,8.4314a8.3644,8.3644,0,0,0,.3375,3.5537l5.717,20.2131.1549.5476c.7059,2.496,4.6025,1.4353,3.8929-1.0732Z"/><path class="cls-1" d="M228.7887,294.4114c.8474-8.4466-5.6383-26.1426-9.5084-39.7061s5.4041-19.545,12.512-7.0273c8.858,16.1526,11.85,41.0462,12.712,50.7043a60.4183,60.4183,0,0,0,1.4217,8.6884l2.21,9.2375"/><path d="M230.8073,294.4114c.3962-4.3135-.63-8.8-1.6241-12.97-1.2974-5.4441-2.9533-10.7988-4.5989-16.1453-.8423-2.7367-1.6913-5.4714-2.5075-8.216a31.6328,31.6328,0,0,1-1.6744-7.6437,9.4546,9.4546,0,0,1,1.0494-5.2679,2.37,2.37,0,0,1,2.4633-1.3144c-.2652-.0224.5446.1282.7082.1826a4.3552,4.3552,0,0,1,.817.3861,9.5123,9.5123,0,0,1,2.2718,1.9261,26.1591,26.1591,0,0,1,3.94,6.4928,90.8414,90.8414,0,0,1,5.3356,14.9152,177.3,177.3,0,0,1,5.0916,27.5508,111.73,111.73,0,0,0,2.0482,13.9173l2.0616,8.6193c.6042,2.5258,4.4981,1.4564,3.893-1.0732l-1.9569-8.1817a95.4111,95.4111,0,0,1-1.906-12.3277,186.6965,186.6965,0,0,0-5.1405-28.8486,99.7886,99.7886,0,0,0-5.6363-15.9582c-2.0223-4.3847-4.7956-9.7276-9.7458-11.3112-4.0243-1.2874-7.4252,1.3637-8.6859,5.0866-1.7221,5.0857.1462,10.5281,1.6207,15.4161,1.9326,6.4064,4.008,12.7733,5.7374,19.2392,1.3249,4.9531,2.8775,10.3421,2.4013,15.5253a2.0338,2.0338,0,0,0,2.0187,2.0186,2.0616,2.0616,0,0,0,2.0186-2.0186Z"/><path class="cls-1" d="M235.9715,298.7007s-5.5673-33.9266-18.91-52.98c-8.4311-11.6675-16.9973-4.71-11.6707,8.35s12.9853,34.5821,13.0643,43.0707"/><path d="M237.918,298.1641c-.7711-4.6858-1.8456-9.3359-3.0081-13.9373a158.58,158.58,0,0,0-9.6319-28.05,59.0317,59.0317,0,0,0-8-13.431c-2.7528-3.2421-7.6038-6.6758-11.8984-4.0933-4.1194,2.4773-4.0646,8.2942-3.0962,12.3826a56.355,56.355,0,0,0,2.7194,7.4708q1.4986,3.8175,2.91,7.6687c2.1155,5.7718,4.11,11.5967,5.8078,17.5063,1.261,4.39,2.6468,9.0479,2.7156,13.4608.04,2.5954,4.0778,2.6032,4.0372,0a48.3711,48.3711,0,0,0-1.9711-11.3028c-1.3-4.9729-2.8814-9.8727-4.5577-14.73q-2.5414-7.365-5.4167-14.61c-1.51-3.8147-4.1048-9.0331-2.1892-13.0256a5.2078,5.2078,0,0,1,.2784-.4982c.0313-.05.2991-.4238.13-.2109.1063-.134.67-.6361.502-.516a2.1184,2.1184,0,0,1,1.4893-.4523c1.651.0893,3.4525,1.4369,4.7483,2.77,3.3812,3.48,5.712,8.2227,7.7908,12.5586a147.3533,147.3533,0,0,1,9.3154,26.5258c1.3424,5.1389,2.5689,10.3425,3.4319,15.5869a2.0342,2.0342,0,0,0,2.4831,1.41,2.0666,2.0666,0,0,0,1.41-2.4831Z"/><path class="cls-1" d="M226.1044,301.3837s-7.29-33.5986-21.5872-51.9469c-9.0151-11.2224-17.2153-3.837-11.23,8.9347s14.7317,33.8749,15.2435,42.3485"/><path d="M228.0509,300.8471c-1.0107-4.6481-2.3234-9.245-3.7218-13.7886A158.993,158.993,0,0,0,213.362,259.645a60.5254,60.5254,0,0,0-8.5629-12.9681c-2.88-3.1159-7.79-6.4423-12.0533-3.8671-4.0792,2.4643-3.9342,8.21-2.85,12.221a52.7218,52.7218,0,0,0,3.2651,7.8664q1.6119,3.5511,3.1456,7.1368c2.4468,5.7171,4.76,11.5027,6.78,17.3855,1.4526,4.2306,3.15,9.1732,3.4257,13.3005.172,2.5788,4.21,2.598,4.0372,0a48.1874,48.1874,0,0,0-2.5176-11.192c-1.5523-4.9-3.3811-9.7129-5.3028-14.4787q-2.9494-7.314-6.22-14.4944c-1.7012-3.7381-4.62-8.7849-2.7511-12.99a4.4133,4.4133,0,0,1,.8582-1.1592,2.1576,2.1576,0,0,1,1.5051-.4634c1.6046.0546,3.3815,1.2393,4.6929,2.4531,3.5579,3.2927,6.1168,7.8609,8.4147,12.0789a146.9308,146.9308,0,0,1,10.7019,26.0386c1.6048,5.069,3.0968,10.2087,4.2273,15.4078.5518,2.5376,4.4447,1.4637,3.893-1.0733Z"/><path class="cls-1" d="M217.6575,304.1037a152.0893,152.0893,0,0,0-12.2229-22.3182c-16.5514-26.2458-50.9082,3.381-50.9082,3.381-9.41,8.969-5.75,20.9116,7.0032,14.2677,11.7232-6.1074,28.5187-22.7129,34.2463,2.6068,3.5323,15.6151-13.797,22.6368-24.06,2.1423a7.5057,7.5057,0,0,0-7.93-4.0978l-.173.0288a7.4682,7.4682,0,0,0-6.2342,7.2708c-.1542,10.27,14.8366,33.249,40.3269,38.8646l10.093,32.2977"/><path d="M219.604,303.567c-1.1137-2.7243-2.4317-5.37-3.7873-7.98q-2.2965-4.4212-4.8514-8.7018a77.08,77.08,0,0,0-6.0893-9.3117A22.9426,22.9426,0,0,0,192.55,269.601a29.4545,29.4545,0,0,0-13.9034.3613c-7.8295,1.9311-15.1541,6.0172-21.6364,10.7369a47.3573,47.3573,0,0,0-3.9116,3.04c-3.7241,3.3637-7.0351,9.2116-5.5292,14.372,1.5277,5.2349,7.19,6.051,11.7416,4.4741,4.5261-1.5683,8.5112-4.5588,12.5654-7.0383,3.5511-2.1719,7.1176-4.3516,11.2158-5.0121a8.1668,8.1668,0,0,1,4.2064.4831,9.0437,9.0437,0,0,1,3.808,3.8787,27.1473,27.1473,0,0,1,2.8973,8.54,12.7266,12.7266,0,0,1-.3084,6.17,7.9489,7.9489,0,0,1-1.1176,2.2906,3.6125,3.6125,0,0,1-.617.7668q-.201.2151-.4157.417c-.0835.0784-.5689.4912-.3343.3092a7.7477,7.7477,0,0,1-.9676.63,3.3261,3.3261,0,0,1-.9236.4239,6.2781,6.2781,0,0,1-2.287.4035,10.0238,10.0238,0,0,1-5.2661-1.6173,19.4342,19.4342,0,0,1-5.6109-5.5047c-1.9627-2.7988-3.0375-6.2149-5.9706-8.199a9.6744,9.6744,0,0,0-9.2361-.6832,9.4988,9.4988,0,0,0-5.5032,7.51,15.0057,15.0057,0,0,0,.4716,5.35,37.5819,37.5819,0,0,0,5.4228,11.6342,59.7541,59.7541,0,0,0,26.4466,21.8619,55.6339,55.6339,0,0,0,9.3816,2.9974l-1.41-1.41,8.8363,28.2762,1.2567,4.0214c.7724,2.4717,4.671,1.4165,3.893-1.0732l-8.8364-28.2763-1.2566-4.0214a2.0284,2.0284,0,0,0-1.41-1.41,55.2,55.2,0,0,1-29.5829-17.9578,46.8249,46.8249,0,0,1-7.38-11.4276,26.3573,26.3573,0,0,1-1.5943-4.8365c-.0754-.351-.1394-.7038-.1959-1.0582-.0495-.3109.038.334.0025.0277-.01-.083-.0211-.1661-.028-.2494-.0157-.189-.0348-.3774-.0459-.5669a6.2452,6.2452,0,0,1,.4676-3.03,5.64,5.64,0,0,1,6.0289-3.1269c3.3878.5943,4.3132,3.8977,5.9322,6.4494,2.7853,4.39,6.7955,8.6427,12.0092,9.96a11.1983,11.1983,0,0,0,10.8248-2.8262c3.0509-3.1256,3.9595-7.7023,3.4224-11.9209-.6453-5.0689-2.5195-11.2689-6.5606-14.71-3.1536-2.6856-7.1648-3.0967-11.0729-2.052-4.1648,1.1134-7.9738,3.43-11.6044,5.6844-3.7558,2.3327-7.67,5.402-12.0323,6.4436a7.4306,7.4306,0,0,1-2.843.164,5.9032,5.9032,0,0,1-.6366-.1694c-.3659-.1184-.1288-.0235-.379-.1621a2.0158,2.0158,0,0,1-.769-.57c-.2249-.2237-.1287-.12-.1793-.19a4.9135,4.9135,0,0,1-.3564-.5877c-.1614-.3041.0013.0734-.1131-.2579a7.2216,7.2216,0,0,1-.1969-.7017,7.3385,7.3385,0,0,1,.0154-2.3847,14.4671,14.4671,0,0,1,5.2214-8.1852c.3113-.2529.627-.5.9421-.7482.2756-.2169-.3348.2552-.0413.0317.1-.0758.1985-.1523.2982-.2277q.3832-.29.7693-.5766,1.8032-1.3341,3.6787-2.5664A70.4152,70.4152,0,0,1,172.6,276.2824c7.4828-3.2841,16.632-5.1412,24.01-.6966,5.1758,3.1177,8.1071,8.6622,11.0882,13.7061a151.7814,151.7814,0,0,1,7.3263,13.8135c.22.478.4334.9584.6449,1.44.2855.6505-.089-.2247.0417.0949a2.0837,2.0837,0,0,0,2.4831,1.41,2.032,2.032,0,0,0,1.41-2.4832Z"/><path class="cls-4" d="M559.1815,555.5775c-10.5984,44.4092-174.9457,8.7423-174.9457,8.7423L433.19,392.28c1.7041-9.9271,15.735-17.2516,25.0651-16.6069l62.2571,4.3021c10.1375.7,15.144,5.2585,18.4673,20.4368C538.98,400.4116,558.0123,505.8736,559.1815,555.5775Z"/><path d="M441.5072,376.534l12.4382.86,27.3134,1.8874,27.0953,1.8723c4.189.2895,8.3846.5309,12.57.8713,4.532.3685,8.5541,1.896,11.1531,5.6471,2.7109,3.9127,4.1043,8.847,4.9909,13.47.7867,4.1019,1.4509,8.2315,2.1556,12.3479q2.3224,13.5681,4.4884,27.1625,2.8348,17.7822,5.3778,35.6093c1.7894,12.6249,3.4465,25.27,4.8591,37.9429,1.272,11.4106,2.38,22.8531,2.95,34.3227q.1751,3.5235.2638,7.05l1-1.743c-11.356,4.9345-23.7012,7.7027-35.8977,9.6846a344.27,344.27,0,0,1-41.5826,3.8869c-13.2347.5247-26.4892.5148-39.7274.1269q-15.24-.4466-30.452-1.5669-4.73-.3492-9.4531-.7735c-1.44-.1307-2.9447-.4228-4.392-.4241a1.7215,1.7215,0,0,1-.1833-.0195l2.0186,2.0186,1.433-31.17.957-20.8131.3076-6.691c.0267-.5806.0629-1.1617.08-1.7426.023-.7762.0977-.0039-.0434.08.3011-.18.5343-1.7333.6325-2.0517l1.51-4.8976,5.0436-16.3611L421.5708,440.44c2.7283-8.85,5.6433-17.6664,8.191-26.571.04-.1412.0866-.281.13-.4214.7671-2.4885-3.1287-3.5526-3.893-1.0732l-6.873,22.2952-13.208,42.8457-8.4141,27.2946c-.5955,1.9314-.3921,4.1968-.4837,6.19l-.88,19.1511-1.6518,35.9263-.0318.6906a2.0658,2.0658,0,0,0,2.0187,2.0187c3.7864.4095,7.5853.72,11.3819,1.016q14.5482,1.1363,29.1375,1.64c13.12.4612,26.2574.5573,39.38.1525a378.7132,378.7132,0,0,0,42.3365-3.4742c12.6838-1.8273,25.4185-4.4468,37.3923-9.1072,1.3773-.5361,2.742-1.104,4.0974-1.693a1.9683,1.9683,0,0,0,1-1.743c-.2631-10.9436-1.1953-21.87-2.2966-32.7575-1.2962-12.8135-2.897-25.5949-4.6321-38.3557q-2.5421-18.6952-5.4752-37.3345-2.3239-14.89-4.8357-29.75-1.3743-8.1354-2.8117-16.26c-1.3708-7.7009-4.13-17.1916-11.686-20.9831-4.75-2.3835-10.4032-2.2807-15.6085-2.64l-24.8034-1.7139-28.9517-2.0006L442.38,372.5571l-.8729-.06c-2.5931-.1792-2.582,3.8588,0,4.0372Z"/><path class="cls-1" d="M386.1744,509.594,348.1388,511.82c-25.7611,1.508-48.3359,18.3614-56.3789,42.8811-2.817,8.5879-3.4334,17.1036.5114,23.955,39.1636,9.0916,93.7129-9.0916,93.7129-9.0916"/><path d="M386.1744,507.5754l-31.3769,1.8367a122.35,122.35,0,0,0-15.027,1.4051A65.4278,65.4278,0,0,0,312.9817,522.37a64.6185,64.6185,0,0,0-19.0869,22.099c-5.1411,9.876-9.0853,22.6377-4.301,33.3659.64,1.4353,1.1881,2.5581,2.8215,2.9229q1.8885.422,3.7952.7568c2.5267.4469,5.0737.792,7.6257,1.0569a131.0148,131.0148,0,0,0,15.3592.634,204.5887,204.5887,0,0,0,30.23-2.8816,254.6492,254.6492,0,0,0,36.5083-8.6218c.196-.0629.392-.1257.5872-.1908,2.4531-.8167,1.4017-4.717-1.0732-3.8929-6.7033,2.2318-13.6014,3.967-20.4829,5.5412a220.7483,220.7483,0,0,1-45.2159,6,111.4694,111.4694,0,0,1-26.9409-2.45l1.2064.9277c-3.4-6.0528-2.8817-13.208-1.1216-19.6918a58.539,58.539,0,0,1,7.1266-16.0153,61.1018,61.1018,0,0,1,24.338-21.7718A64.2352,64.2352,0,0,1,349.4,513.7652l19.3745-1.1341,17.4-1.0185c2.5823-.1511,2.6-4.1893,0-4.0372Z"/><polygon class="cls-3" points="773.659 585.347 640.875 788.404 25 579.11 711.629 586.474 773.659 585.347"/><path d="M771.9162,584.3281l-44.8633,68.6062-71.5074,109.351-16.4131,25.1,2.28-.9277L624.9,780.8457l-44.9309-15.2689-66.1481-22.4792-80.663-27.4118-88.7045-30.1445-89.5442-30.43L171.74,626.848l-70.5633-23.98-50.5543-17.18-15.7553-5.3542c-2.6607-.9041-5.5311-2.3165-8.3024-2.8214a7.6708,7.6708,0,0,1-1.0277-.3492L25,581.1288l21.835.2342,58.3052.6252,85.5848.9179,101.8012,1.0917,109.4229,1.1734,105.657,1.1331,93.3492,1.0011,69.8726.7493,37.3638.4007c17.6552.1893,35.3443-.5427,52.9959-.8633l12.4716-.2266c2.5948-.0471,2.6032-4.0845,0-4.0372-20.84.3786-41.7091,1.1476-62.5513,1.1212-9.2278-.0117-18.4588-.198-27.6858-.2969l-63.2694-.6785-88.0932-.9448L427.925,581.4126l-108.86-1.1674-105.0881-1.127-89.9873-.965-66.13-.7092c-10.4869-.1125-20.9863-.3848-31.474-.3375-.4617.002-.9238-.01-1.3854-.0149-2.3516-.0252-2.641,3.25-.5366,3.9651l16.5124,5.6114L85.9067,601.937l66.1481,22.4792,80.663,27.4117,88.7044,30.1445,89.5443,30.43,83.1693,28.2634,70.5633,23.98,50.5543,17.18c8.0044,2.72,15.97,5.71,24.0577,8.1756.3455.1053.6856.2329,1.0277.3492a2.0517,2.0517,0,0,0,2.28-.9277l44.8633-68.6062,71.5073-109.351,16.4132-25.0994C776.8283,584.1849,773.3341,582.16,771.9162,584.3281Z"/><path class="cls-5" d="M662.5875,756.941v0c-4.3027-19.0478-18.5935-33.8058-36.7775-37.98L62.5225,589.6638l674.6394,51.5638Z"/><path class="cls-3" d="M25,579.11c6.78-2.8922,777.5266-35.0432,777.5266-35.0432L975,757.6525Z"/><path d="M25.5366,581.0567c.6791-.2674.3467-.0832.527-.1079.7373-.1009,1.484-.15,2.225-.2147,2.6576-.23,5.3214-.3973,7.9833-.5675,9.5064-.6077,19.02-1.11,28.5323-1.6088,32.8922-1.7241,65.7945-3.2586,98.6964-4.7831q67.8647-3.1445,135.7368-6.1252,75.8918-3.3589,151.7874-6.63,73.31-3.1679,146.623-6.2866,60.1212-2.56,120.2435-5.0938,36.3241-1.531,72.6488-3.0522l8.35-.3492c.8169-.0341,2.7765.265,3.511-.1466-1.0362.5806-1.2357-1.4058-.9136-.1156.217.8692,1.7358,2.15,2.2864,2.8314l10.1568,12.5779L897.449,664.8108l72.1957,89.4049,3.9279,4.8642,1.964-3.3739-25.37-4.7681-69.05-12.9772L778.59,718.6921,653.896,695.2571,517.3311,669.5912,379.4868,643.6849,250.9542,619.5285,142.0053,599.0528,63.99,584.3906c-12.2973-2.3111-24.5832-4.6972-36.8943-6.9339-.52-.0945-1.04-.1953-1.5592-.293-2.5393-.4772-3.6276,3.4129-1.0732,3.893l25.37,4.7681,69.05,12.9773L221.41,618.0707,346.104,641.5056l136.5649,25.6659,137.8443,25.9064,128.5326,24.1563L857.9947,737.71,936.01,752.3721c12.2973,2.3112,24.5832,4.6972,36.8943,6.9339.52.0945,1.04.1954,1.5592.293a2.0374,2.0374,0,0,0,1.964-3.3738l-54.153-67.0613L831.5766,576.8466l-25.4153-31.4735c-2.498-3.0934-3.397-3.3348-7.1987-3.1759q-28.606,1.1952-57.2117,2.4Q686.28,546.93,630.809,549.2856q-71.4941,3.0352-142.9866,6.11-76.4769,3.2908-152.951,6.6455-70.9549,3.1185-141.9053,6.3416-54.86,2.506-109.7124,5.194c-18.46.9258-37.0262,1.4751-55.439,3.1613a12.8773,12.8773,0,0,0-3.3513.426C22.0735,578.1047,23.1143,582.0105,25.5366,581.0567Z"/><path class="cls-4" d="M514.9036,379.5872l39.42,2.4837a30.22,30.22,0,0,1,27.7583,24.3624L608.078,509.2719a35.954,35.954,0,0,1-33.36,44.7344l-213.2711,8.8879V511.3833l170.0014-22.4856L519.56,417.1066"/><path d="M514.9036,381.6058l19.9594,1.2576c6.7172.4232,13.4619.7,20.1679,1.2789a28.25,28.25,0,0,1,17.61,8.4266,29.823,29.823,0,0,1,7.5177,14.4919c.8707,3.71,1.8693,7.3948,2.8032,11.0892l6.0433,23.9068,7.2239,28.5772,6.345,25.1,3.4116,13.4959a34.48,34.48,0,0,1-5.4929,29.0668,34.1082,34.1082,0,0,1-26.0552,13.7027q-3.7248.1594-7.45.31l-16.0386.6684-22.6548.9441-26.9974,1.1251L471.952,556.27l-29.6139,1.2341-27.8058,1.1588-24.0091,1-17.9272.7471-9.8776.4117-1.272.053,2.0186,2.0186V511.3833l-2.0186,2.0186,4.5483-.6016,12.3773-1.6371,18.3061-2.4213,22.3341-2.9541,24.3378-3.2191,24.6922-3.2659,23.028-3.0459,19.4632-2.5743,13.9979-1.8515q3.3161-.4386,6.6319-.8772l.2846-.0376a2.0667,2.0667,0,0,0,1.9465-2.5552l-4.0362-24.3749-6.3825-38.5447-1.469-8.8715a2.0343,2.0343,0,0,0-2.4831-1.41,2.0664,2.0664,0,0,0-1.41,2.4831l4.0362,24.3749,6.3825,38.5447,1.469,8.8715,1.9465-2.5552-4.5482.6016-12.3773,1.6371-18.3061,2.4213-22.3342,2.954-24.3378,3.2191-24.6922,3.266-23.028,3.0458-19.4631,2.5744-13.998,1.8514q-3.3159.4386-6.6318.8772l-.2847.0377a2.0722,2.0722,0,0,0-2.0186,2.0186v51.5109a2.04,2.04,0,0,0,2.0186,2.0186l5.3491-.2229,14.5329-.6057,21.6877-.9038,26.5259-1.1054,29.4346-1.2267,30.0853-1.2538,28.4669-1.1863,24.843-1.0353,19.1529-.7982,11.1939-.4665a42.3269,42.3269,0,0,0,17.9736-4.291,38.3626,38.3626,0,0,0,20.5044-32.7417c.1449-5.5425-1.2731-10.74-2.6121-16.0368l-5.2816-20.8936-7.133-28.2172-6.9127-27.3461-4.5164-17.8664c-.2369-.9374-.4918-1.8722-.7113-2.8138a33.3281,33.3281,0,0,0-9.7433-17.3608,32.6216,32.6216,0,0,0-19.0793-8.4195c-2.2636-.2088-4.5423-.3-6.8105-.4425l-27.4729-1.7309-6.02-.3793c-2.5945-.1635-2.5847,3.8744,0,4.0372Z"/><path d="M307.1779,565.81a56.937,56.937,0,0,1,2.5084-8.0014,45.2871,45.2871,0,0,1,8.32-14.2955,20.9,20.9,0,0,1,7.6715-5.57,2.0785,2.0785,0,0,0,1.41-2.4831,2.0334,2.0334,0,0,0-2.4831-1.41c-11.1969,4.364-17.2049,16.682-20.4685,27.5353-.3129,1.0407-.6154,2.09-.8507,3.1515-.5612,2.5316,3.33,3.6128,3.893,1.0733Z"/><path d="M326.1325,564.5737a11.8194,11.8194,0,0,1-.0159-1.25c.0131-.4778.0448-.9551.0922-1.4307.0136-.1362.0312-.2719.0448-.4081.0465-.468-.061.3459.0014-.0182.0528-.3082.0971-.6175.1559-.9248a20.6494,20.6494,0,0,1,.517-2.1035q.165-.5449.3612-1.08c.0677-.1844.1389-.3674.2115-.55.0115-.029.1223-.2916.03-.0755-.106.2484.0863-.19.1077-.2357a18.6081,18.6081,0,0,1,1.2228-2.2328q.1812-.28.3734-.5524c.0485-.0687.3926-.5331.2068-.2934.3075-.3967.64-.776.9846-1.1406a15.5248,15.5248,0,0,1,5.7417-3.8453,2.08,2.08,0,0,0,1.41-2.4831,2.0329,2.0329,0,0,0-2.4832-1.41,19.7811,19.7811,0,0,0-10.4685,8.9617,22.44,22.44,0,0,0-2.5211,9.2361,13.4726,13.4726,0,0,0-.0094,1.836,2.07,2.07,0,0,0,2.0186,2.0186,2.0347,2.0347,0,0,0,2.0186-2.0186Z"/><path class="cls-2" d="M455.54,375.8449l-1.9333,11.9739a66.5567,66.5567,0,0,0,2.4789,31.3967l7.5844,23.0677,22.473-20.71a66.5567,66.5567,0,0,0,17.8931-27.4673l5.0334-14.7645Z"/><path d="M453.5939,375.3083l-1.6815,10.4143a73.8146,73.8146,0,0,0-.744,20.2649c1.088,9.5164,4.5256,18.4926,7.4993,27.5371l3.0562,9.2952a2.0442,2.0442,0,0,0,3.3738.8908l19.2986-17.7843a92.8832,92.8832,0,0,0,10.7292-11.1638,71.98,71.98,0,0,0,11.2011-21.1276l4.69-13.7566a2.0407,2.0407,0,0,0-1.9464-2.5552l-18.056-1.18L462.2,374.2614l-6.66-.4351c-2.594-.1694-2.5837,3.8684,0,4.0372l18.056,1.18,28.8135,1.8822,6.66.4351-1.9465-2.5553-4.1856,12.2778a73.1863,73.1863,0,0,1-9.2642,18.9077,78.4723,78.4723,0,0,1-11.26,12.2774l-11.4791,10.5784-8.6915,8.01,3.3739.8908L459.1311,422.02a89.9884,89.9884,0,0,1-3.47-12.8735,65.45,65.45,0,0,1,.0009-21.4644l1.8246-11.3008a2.0807,2.0807,0,0,0-1.41-2.4831A2.0346,2.0346,0,0,0,453.5939,375.3083Z"/><line class="cls-6" x1="462.9127" y1="442.2832" x2="450.0308" y2="498.9907"/><path d="M460.9662,441.7466l-4.3439,19.1224-6.9335,30.5219-1.6045,7.0632c-.5746,2.53,3.3168,3.61,3.893,1.0732l4.344-19.1224,6.9334-30.522,1.6045-7.0631c.5747-2.53-3.3167-3.61-3.893-1.0732Z"/><path class="cls-2" d="M454.6165,381.5675l5.4988-26.7031L607.6782,349.27l-.7088,23.038a21.3236,21.3236,0,0,1-23.0461,20.5972l-106.3242-8.6677"/><path d="M605.66,349.27l-.4782,15.544q-.11,3.5768-.22,7.1534a19.8116,19.8116,0,0,1-3.2341,10.3928,19.6023,19.6023,0,0,1-18.108,8.5017q-3.729-.2976-7.4569-.6079l-34.6444-2.8243-41.0155-3.3437-15.0044-1.2232c-2.5134-.2048-5.0437-.5164-7.564-.6166-.1116-.0044-.2235-.0182-.3349-.0273-2.59-.2111-2.5758,3.8272,0,4.0372l19.25,1.5693,40.7372,3.321,36.553,2.98,8.9673.731a23.9712,23.9712,0,0,0,17.9424-5.6642,23.22,23.22,0,0,0,7.3449-12.2509,39.1943,39.1943,0,0,0,.6838-7.5607l.5752-18.6929.0436-1.4186c.08-2.5987-3.9573-2.5961-4.0372,0Z"/><path d="M456.563,382.1041l4.82-23.4079.6785-3.2952-1.9465,1.482,10.7414-.4185,25.6652-1,31.1653-1.2143,26.8418-1.0458c4.3611-.17,8.7488-.2133,13.1036-.51.0607-.0041.1219-.0047.1827-.0071,2.5894-.1009,2.6025-4.1386,0-4.0372l-10.7414.4185-25.6652,1-31.1653,1.2143-26.8418,1.0458c-4.3611.17-8.7488.2133-13.1036.5105-.0607.0041-.1219.0047-.1827.0071a2.0565,2.0565,0,0,0-1.9465,1.482l-4.82,23.4078-.6785,3.2952c-.5222,2.5359,3.3684,3.62,3.893,1.0733Z"/><path class="cls-5" d="M639.149,377.2436l-32.3615-2.7282.8907-25.2458S633.1041,375.1546,639.149,377.2436Z"/><circle class="cls-5" cx="473.403" cy="459.7669" r="3.4968"/><circle class="cls-5" cx="466.4095" cy="487.0416" r="3.4968"/><path d="M203.742,414.9326a101.1472,101.1472,0,0,0,16.57-1.9789,133.6689,133.6689,0,0,0,36.3724-12.2632,112.03,112.03,0,0,0,22.3276-15.026c1.9675-1.7038-.8984-4.5488-2.8548-2.8548a113.554,113.554,0,0,1-38.2758,21.4191,137.729,137.729,0,0,1-16.8871,4.4935,118.8,118.8,0,0,1-11.8157,1.7951c-1.8043.18-3.6224.3461-5.4369.378-2.5949.0457-2.6032,4.083,0,4.0372Z"/><path d="M384.4966,509.4176l.09,18.0182.1436,28.8694.0329,6.6079c.0129,2.5972,4.05,2.6026,4.0372,0l-.09-18.0182-.1437-28.8694-.0328-6.6079c-.0129-2.5972-4.05-2.6026-4.0372,0Z"/><path d="M693.6909,251.9481a37.8737,37.8737,0,0,1-2.6476-11.7627c-.5994-8.149,1.5727-16.3026,7.5093-22.1527a30.02,30.02,0,0,1,6.347-4.7179,38.61,38.61,0,0,1,4.04-1.9771c.7284-.3057,1.4663-.589,2.21-.8553.6864-.2459,1.4583-.3314,1.7582-1.0689.537-1.3212.696-2.8911,1.1431-4.2613a37.7188,37.7188,0,0,1,1.4912-3.8639,38.4574,38.4574,0,0,1,4.0225-6.8867c5.6531-7.7008,14.5931-13.2377,24.2009-14.0168a25.5772,25.5772,0,0,1,23.6513,11.3022,33.1214,33.1214,0,0,1,1.9581,3.39,1.0238,1.0238,0,0,0,1.3809.3621c9.0941-5.0061,19.7015-7.51,29.7919-4.1,8.0862,2.7331,14.6552,8.8644,18.9178,16.153a41.066,41.066,0,0,1,4.8063,12.5236,1.0257,1.0257,0,0,0,1.2416.705c7.0074-1.5878,15.0391-1.7649,20.7007,3.3453,4.7243,4.2641,6.8052,10.7,8.0965,16.7439.8042,3.7642,1.305,7.5838,1.7316,11.4066l1.0093-1.0093c-9.2346-.4446-18.4983-.4472-27.7412-.51-14.1258-.0965-28.2524-.0916-42.3784-.061q-38.8811.0843-77.7611.4281-8.2263.0668-16.4527.1433a1.01,1.01,0,0,0,0,2.0186q23.2035-.2239,46.4077-.3594c28.5492-.1793,57.101-.3265,85.6507-.1781,10.7519.0558,21.5326.02,32.275.5375a1.0122,1.0122,0,0,0,1.0093-1.0093c-1.41-12.6388-3.8644-30.361-18.6575-33.89-4.7485-1.1328-9.7177-.62-14.4266.4474l1.2416.7049a42.674,42.674,0,0,0-12.4628-22.4023,33.797,33.797,0,0,0-25.4626-9.2827,45.447,45.447,0,0,0-18.5559,5.9017l1.3809.3621c-4.75-9.3954-13.7813-15.58-24.4058-15.7838-10.377-.1992-20.43,4.9853-27.0773,12.81a40.7457,40.7457,0,0,0-8.6735,17.7929l.7049-.7049c-9.6873,3.2684-18.2344,9.5849-21.3687,19.6634-2.0465,6.5807-1.66,13.7825.0707,20.3889a31.5831,31.5831,0,0,0,1.3767,4.2605C692.2411,253.6637,694.1953,253.1455,693.6909,251.9481Z"/><path d="M372.7878,175.3354H262.3786a25.94,25.94,0,0,0-4.4836,0,1.1851,1.1851,0,0,1-.2055,0l.9732.741c-.0395-.2465-.0022.18.0063.0532a3.5841,3.5841,0,0,0-.0568-.5329c-.0594-.648-.0855-1.2994-.09-1.95a26.8013,26.8013,0,0,1,.7136-6.3478,24.6716,24.6716,0,0,1,11.82-15.7087c5.3459-3.106,11.5215-4.537,17.6218-5.17a1.0624,1.0624,0,0,0,.9732-.741c2.69-7.8561,8.5324-14.54,16.6709-16.8876a22.5278,22.5278,0,0,1,20.9424,4.6392,27.7387,27.7387,0,0,1,7.8708,12.2484,1.0274,1.0274,0,0,0,1.4827.6032c5.0109-2.411,10.8193-2.87,15.2448.9652a15.9651,15.9651,0,0,1,5.3708,9.466,1.0274,1.0274,0,0,0,1.0093,1.0093,10.6257,10.6257,0,0,1,10.5115,5.8587,26.79,26.79,0,0,1,2.885,10.3547c.0759.799.1383,1.605.14,2.4082a1.01,1.01,0,0,0,2.0186,0c-.01-6.5058-1.9229-14.6919-7.5176-18.63a12.3094,12.3094,0,0,0-8.0371-2.01l1.0093,1.0093A17.915,17.915,0,0,0,352.92,145.51c-5.1462-4.1759-11.5928-3.7271-17.3212-.9708l1.4826.6032c-2.8581-8.55-9.0771-15.8624-17.9611-18.357a24.9673,24.9673,0,0,0-22.8248,5.2156,29.8189,29.8189,0,0,0-8.5912,13.1414l.9733-.741c-9.8254,1.019-20.2181,4.1424-26.5443,12.2291a27.3272,27.3272,0,0,0-5.6225,16.1974,20.9049,20.9049,0,0,0,.2055,3.7848,1.0138,1.0138,0,0,0,.9733.7409H368.0987c1.4831,0,3.0025.0953,4.4835,0,.0679-.0043.1374,0,.2056,0A1.01,1.01,0,0,0,372.7878,175.3354Z"/><path d="M121.1952,771.7067H29.066a19.4123,19.4123,0,0,0-3.7859,0,.8538.8538,0,0,1-.1669,0l1.0093,1.0093a26.7874,26.7874,0,0,1,2.0951-9.652A25.4207,25.4207,0,0,1,43.01,748.55c6.1194-2.2833,12.7631-2.55,19.2108-1.993a1.02,1.02,0,0,0,.9733-.7409c2.335-7.5055,7.7873-13.84,15.6566-15.6284a21.1341,21.1341,0,0,1,19.439,5.8865,26.3889,26.3889,0,0,1,6.6917,12.3924,1.0239,1.0239,0,0,0,1.4827.6032c4.3722-2.0852,8.5011,2.8006,10.4631,6.0912a24.9471,24.9471,0,0,1,3.2948,17.2865c-.2552,1.2684,1.69,1.8111,1.9465.5366a27.0527,27.0527,0,0,0-4-19.6467c-2.6889-4.1285-7.5191-8.4927-12.7235-6.0106l1.4826.6032c-2.1094-8.49-7.7146-15.943-16.1194-18.9423a22.261,22.261,0,0,0-21.5729,3.7709,26.1022,26.1022,0,0,0-7.988,12.5208l.9732-.741c-10.2792-.8885-21.5129.5329-29.2963,7.9292a29.36,29.36,0,0,0-8.3815,16.1934,23.8362,23.8362,0,0,0-.439,4.0548,1.0238,1.0238,0,0,0,1.0093,1.0093h92.1292c1.25,0,2.5383.0906,3.7858,0,.0551-.004.1117,0,.167,0A1.01,1.01,0,0,0,121.1952,771.7067Z"/><path d="M117.5258,271.5192l13.99,9.78,1.9809,1.3847a2.0366,2.0366,0,0,0,2.7618-.7242,2.06,2.06,0,0,0-.7242-2.7619l-13.99-9.78-1.9808-1.3847a2.0366,2.0366,0,0,0-2.7618.7242,2.06,2.06,0,0,0,.7241,2.7618Z"/><path d="M137.14,251.0965l5.4069,14.8228.7785,2.1342a2.0723,2.0723,0,0,0,2.4831,1.41,2.0355,2.0355,0,0,0,1.41-2.4831l-5.4069-14.8228-.7785-2.1342a2.0723,2.0723,0,0,0-2.4831-1.41,2.0357,2.0357,0,0,0-1.41,2.4832Z"/><path d="M114.4428,304.1918l13.9791-3.9835,1.9991-.57c2.4944-.7108,1.434-4.6075-1.0733-3.893l-13.9791,3.9835-1.999.57c-2.4944.7108-1.4341,4.6075,1.0732,3.893Z"/><path d="M360.8636,730.5973l12.4646,3.8873L406.96,744.9735l49.8581,15.55L517.65,779.4947l66.63,20.78L651.5333,821.25l62.5113,19.4957,53.1678,16.5816,37.9812,11.8454c6.0257,1.8792,12.0269,3.9005,18.094,5.643.2541.073.5053.1576.7577.2363,2.486.7753,3.5494-3.1207,1.0732-3.893l-12.4645-3.8873-33.6318-10.4889-49.8581-15.55-60.8314-18.9717-66.63-20.78-67.2537-20.9747-62.5113-19.4957L418.77,744.429l-37.9813-11.8454c-6.0256-1.8792-12.0268-3.9005-18.0939-5.643-.2541-.073-.5053-.1576-.7577-.2363-2.486-.7754-3.5494,3.1207-1.0733,3.893Z"/><path d="M683.8981,785.9273l12.3082,3.8607,29.552,9.27,35.7365,11.21,30.78,9.6548c4.9764,1.561,9.9424,3.3709,14.987,4.7011.0732.0193.1452.0455.2175.0682,2.4848.7794,3.5479-3.1168,1.0733-3.893l-12.3083-3.8608-29.552-9.27-35.7365-11.21-30.78-9.6549c-4.9763-1.5609-9.9423-3.3709-14.987-4.701-.0732-.0193-.1452-.0456-.2175-.0682-2.4848-.7794-3.5478,3.1167-1.0732,3.893Z"/><path d="M501.8417,295.7847s-2.0186,47.7736-35.662,47.7736c-34.9892,2.0186-30.2791-42.3907-30.2791-42.3907s2.6915,6.7287,14.8031-.6729c14.13-4.71,24.8961,10.7659,30.2791,10.0931,4.7661-.3178,8.1818-4.6868,10.46-9.21a36.7066,36.7066,0,0,0,3.8118-15.5319l.5315-19.6675"/><path d="M499.8231,295.7847c-.0645,1.502-.2331,3.004-.4188,4.4948-.0213.1711-.0436.342-.0655.5131-.0655.5108.0562-.3894-.0185.1358-.0579.4064-.1157.8126-.1778,1.2184q-.2,1.3073-.4388,2.6082-.5517,3.0063-1.3136,5.9689c-2.3782,9.2055-6.3094,18.4-13.6847,24.6563a26.2259,26.2259,0,0,1-13.7827,5.9526c-5.5184.6369-11.7428.46-16.6724-1.7517a21.8856,21.8856,0,0,1-9.8169-8.7787,36.4418,36.4418,0,0,1-4.5232-12.04q-.33-1.5821-.567-3.1818c-.1142-.765-.1941-1.3927-.3051-2.512q-.2646-2.6693-.3163-5.354c-.0424-2.0894.1524-4.1608.1692-6.2429.0008-.1.0177-.2036.0282-.3036l-3.9651.5366c2.24,5.4787,9.1511,4.6179,13.5692,2.7238a33.3563,33.3563,0,0,0,3.575-1.8172,8.582,8.582,0,0,1,3.2279-.8937,16.0776,16.0776,0,0,1,6.0687.4854,34.5271,34.5271,0,0,1,10.2959,5.2639c2.5411,1.7326,5.0971,3.9056,8.0726,4.8521,4.15,1.32,8.5333-1.6291,11.0526-4.6953,5.663-6.892,7.2923-15.6887,7.5266-24.3552l.4618-17.0895c.07-2.5989-3.967-2.5971-4.0372,0l-.3827,14.16c-.0492,1.8236-.0913,3.6476-.1478,5.4709a34.6725,34.6725,0,0,1-3.8874,15.2268c-1.8241,3.4274-4.6113,7.4361-8.8954,7.55-.4511.0119.3366.0741.0472.0112-.1211-.0264-.2459-.044-.3641-.0823-.23-.0747-.46-.142-.687-.2277a4.533,4.533,0,0,0-.4105-.1969c-.3232-.1617-.6391-.338-.9511-.52-1.3192-.77-2.568-1.6581-3.8221-2.5283-6.4635-4.4851-13.5949-8.6389-21.7757-7.0976-2.8714.541-5.1058,2.3605-7.837,3.2983a13.6566,13.6566,0,0,1-2.6589.6606,8.5674,8.5674,0,0,1-1.2448.041c-.1368-.0052-.2734-.0141-.41-.0258-.5062-.0435.2112.0584-.2176-.0353a7.8106,7.8106,0,0,1-.9757-.2767c.4456.16-.1726-.09-.3189-.1742-.0966-.0558-.1878-.1231-.285-.1773-.3879-.2163.12.1177.0073.019-.154-.135-.3-.2726-.4471-.4145-.223-.2149-.2973-.4145-.0441-.0172-.0751-.1179-.1573-.244-.24-.3567-.1379-.1882-.3549-.7908.028.1459a2.03,2.03,0,0,0-3.9651.5366A61.9456,61.9456,0,0,0,434.55,317.3c1.5011,9.3472,5.4871,18.9169,13.7512,24.1952,5.0138,3.2023,11.0812,4.3309,16.9611,4.1245,6.1789-.2169,12.0179-1.2065,17.3642-4.5039,9.0965-5.61,14.4389-15.55,17.5585-25.476a83.567,83.567,0,0,0,2.8386-12.345,56.4261,56.4261,0,0,0,.8187-7.1846c.0025-.1084.0129-.2169.0176-.3253.1115-2.5978-3.926-2.5925-4.0372,0Z"/><path class="cls-2" d="M455.3149,313.2081a9.5776,9.5776,0,0,0,7.2129-1.3312,7.6591,7.6591,0,0,0,2.3992-2.7389,2.0189,2.0189,0,0,0-3.486-2.0376c-.0882.1748-.1815.3465-.2852.5126-.0579.093-.12.1823-.1816.2731-.2244.3334.26-.3022.0674-.0839-.1163.1316-.23.2642-.3543.388-.0838.083-.4131.2844-.4417.3917-.0029.0106.3834-.28.2445-.191-.0341.0219-.0663.0482-.1.0714q-.1.0694-.2022.1346-.2348.1489-.4834.2744c-.07.0353-.1409.0671-.2108.1017-.275.1358.4837-.19.1989-.0821-.1652.0624-.33.1242-.4984.1766a7.4832,7.4832,0,0,1-.8793.2147c-.08.0145-.16.0252-.24.04-.2938.0553.5616-.0645.2683-.0357-.14.0138-.28.03-.4205.04a9.452,9.452,0,0,1-1.39-.0026q-.1409-.0105-.2815-.0256c-.0361-.004-.0721-.0088-.1082-.0125a4.2,4.2,0,0,0,.42.0569c-.0581-.012-.1179-.0168-.1763-.0278a2.1665,2.1665,0,0,0-1.5554.2035,2.0189,2.0189,0,0,0,.4822,3.69Z"/><path class="cls-7" d="M534.2225,337.2578a80.9634,80.9634,0,0,1-24.3064,2.2633c-.0635-.0048,2.9969.256,2.9648.201l-2.9648-.201c-10.0036-17.149-13.0495-36.1308-14.6206-55.922l-1.4389-18.1247L434.34,256.3477c-3.3631-.5532-4.3555-4.597-1.5415-6.281l4.4484-1.3828c4.4631-2.6709,4.18-7.5254,6.0558-12.1116,12.1116-29.6062,30.7708-34.58,52.2019-31.1011,0,0,41.3906,7.2616,46.4736,32.6768,3.0576,15.288-.1907,46.0781-3.2649,68.1887a25.7026,25.7026,0,0,0,2.65,14.9465A11.288,11.288,0,0,1,534.2225,337.2578Z"/><path d="M533.6859,335.3113a73.9838,73.9838,0,0,1-23.77,2.1912c-2.6046-.1917-2.56,3.803,0,4.0372a9.9106,9.9106,0,0,0,3.5014.1289,2.0285,2.0285,0,0,0-.5366-3.9651l-2.9648-.201,1.743,1c-6.9156-11.9264-10.5936-25.2552-12.6-38.821-1.2568-8.4986-1.8246-17.08-2.504-25.6385l-.68-8.5683a2.06,2.06,0,0,0-1.482-1.9465L478.89,261.1505l-28.7293-4.4055c-5.1236-.7857-10.36-1.327-15.4385-2.3748-.9617-.1984-1.6795-.9438-1.5443-1.6753.0341-.1845.4781-.9033.1736-.6869a4.2178,4.2178,0,0,1,1.0667-.3316c1.0384-.3228,2.0888-.62,3.1186-.9694a8.0334,8.0334,0,0,0,3.5075-2.7023c2.2691-2.8568,2.6582-6.5132,3.816-9.86a62.1353,62.1353,0,0,1,5.2136-10.8539,45.0487,45.0487,0,0,1,12.37-14.2152,35.2936,35.2936,0,0,1,14.63-5.9828,54.52,54.52,0,0,1,21.7794,1.171,87.0614,87.0614,0,0,1,23.9513,9.3812,44.3088,44.3088,0,0,1,11.7728,9.7225,27.1734,27.1734,0,0,1,5.8538,13.6429,110.881,110.881,0,0,1,.6458,19.6966c-.2644,8.0721-.9258,16.13-1.7569,24.1616q-.6289,6.0781-1.3929,12.1413c-.48,3.8371-1.2806,7.74-1.4374,11.6038a28.1281,28.1281,0,0,0,2.4963,12.3149,14.3242,14.3242,0,0,1,1.5154,4.5953,9.6719,9.6719,0,0,1-.6417,4.3656,9.2237,9.2237,0,0,1-6.1742,5.4222c-2.4987.6981-1.4373,4.5944,1.0732,3.893a13.4282,13.4282,0,0,0,9.2769-16.5918c-.5313-1.812-1.5176-3.4541-2.1389-5.2367a23.8355,23.8355,0,0,1-1.3286-6.1225c-.2925-4.1013.6328-8.2643,1.1525-12.32,2.068-16.1373,3.9254-32.5481,3.4425-48.8432-.1788-6.0343-.573-12.3186-2.9732-17.9312a34.6711,34.6711,0,0,0-9.8374-12.7132c-7.8488-6.5611-17.5191-10.7614-27.2528-13.6716a72.1746,72.1746,0,0,0-20.1558-3.2824,43.8993,43.8993,0,0,0-16.7568,2.896,40.0643,40.0643,0,0,0-14.8084,10.4667,68.0133,68.0133,0,0,0-11.9406,19.98,47.74,47.74,0,0,0-1.6466,5.3445,11.0841,11.0841,0,0,1-2.0288,4.4877,3.92,3.92,0,0,1-2.4619,1.5085c-.9885.3072-2,.5755-2.975.9247-3.3189,1.1892-4.0291,5.5181-1.9865,8.1081a6.0338,6.0338,0,0,0,3.9139,2.1552c2.3827.38,4.77.7315,7.1553,1.0972l28.4,4.355,22.3148,3.4219,1.1966.1835-1.482-1.9465q.7143,8.9961,1.4284,17.9923c1.142,14.347,3.0351,28.8207,8.0408,42.3924a95.1378,95.1378,0,0,0,5.1474,11.59c.5139.9707,1.0165,1.9719,1.6071,2.8988a2.4082,2.4082,0,0,0,2.074,1.2068c.9132.0793,1.8306.1241,2.7452.1861l-.5366-3.9651c.5566-.1732.4195-.0614-.0648-.09-.3375-.02-.6746-.047-1.0116-.073-.4507-.0348-.9017-.0691-1.3518-.11V341.54a77.5172,77.5172,0,0,0,24.843-2.3354C537.2721,338.5525,536.2068,334.6575,533.6859,335.3113Z"/><path class="cls-2" d="M472.2672,229.4342c-5.083-7.2615-15.2491-4.3569-15.2491-4.3569L451.935,226.53V238.148s12.3446-1.738,18.88,4.3569C476.6241,243.8026,475.6254,234.2316,472.2672,229.4342Z"/><path d="M474.01,228.4154c-4.19-5.8346-11.6924-6.9521-18.254-5.0774l-4.3578,1.2451a2.0614,2.0614,0,0,0-1.482,1.9465V238.148a2.0542,2.0542,0,0,0,2.5552,1.9465c-.9953.1383-.4331.0541-.1977.031.3159-.0309.6315-.0631.9481-.0872,1.0023-.0761,2.0082-.1074,3.0133-.1a25.824,25.824,0,0,1,8.458,1.302,14.0806,14.0806,0,0,1,3.9,2.01,4.8337,4.8337,0,0,0,2.3618,1.3118,5.4071,5.4071,0,0,0,2.2078-.0881c2.88-.8042,3.8588-3.8256,3.8365-6.5291a17.6077,17.6077,0,0,0-2.9889-9.53,2.07,2.07,0,0,0-2.7618-.7242,2.0372,2.0372,0,0,0-.7242,2.7619,14.0513,14.0513,0,0,1,2.4339,7.2828c.0082.3075.0045.6155-.0146.9226-.0082.1308-.0184.2614-.0326.3917-.0265.242.0624-.2572-.0249.1167-.0605.2594-.1266.513-.2043.7679-.085.2787.2207-.3824-.0179.0521-.05.0916-.1065.1833-.1527.2769-.2094.4245.16-.1821.0014.0212a2.4139,2.4139,0,0,1-.2606.2629c.3225-.3018-.2531.1368.06-.0353a1.1233,1.1233,0,0,1-.3006.0868c-.2224.0442.3546.0117-.0418.0039-.1207-.0024-.241.0016-.3618-.0033-.5772-.0234.3606.0842-.2563-.0415l.8907.5191c-5.4206-4.9493-13.8188-5.852-20.8439-4.8761l2.5552,1.9465V226.53l-1.482,1.9465a59.2375,59.2375,0,0,1,6.8521-1.808c.3267-.0521-.4019.0344.1975-.0232.2186-.0209.4367-.045.6556-.0622q.73-.0571,1.4622-.06a13.2393,13.2393,0,0,1,3.0057.2829,9.3944,9.3944,0,0,1,5.88,3.6479,2.0761,2.0761,0,0,0,2.7619.7241A2.0347,2.0347,0,0,0,474.01,228.4154Z"/><circle class="cls-7" cx="526.8974" cy="283.8711" r="16.6237"/><path d="M541.5025,283.8711a14.6034,14.6034,0,1,1-11.8751-14.3555,14.74,14.74,0,0,1,11.8751,14.3555c.0269,2.5963,4.0642,2.6029,4.0372,0a18.6446,18.6446,0,1,0-15.0059,18.2816A18.8946,18.8946,0,0,0,545.54,283.8711C545.5666,281.2724,541.53,281.27,541.5025,283.8711Z"/><circle class="cls-7" cx="531.9631" cy="285.534" r="9.5778"/><path d="M539.5222,285.534a7.5568,7.5568,0,1,1-6.2608-7.4557,7.626,7.626,0,0,1,6.2608,7.4557c.0357,2.5958,4.073,2.6031,4.0372,0a11.7707,11.7707,0,0,0-7.6257-10.8893,11.5982,11.5982,0,0,0-13.9412,16.8142,11.6,11.6,0,0,0,21.5669-5.9249C543.5951,282.9352,539.5579,282.934,539.5222,285.534Z"/><path class="cls-2" d="M488.2426,226.7428l60.5023,18.5091a6.6057,6.6057,0,0,1,4.1823,7.1566h0c-.4326,3.5936-3.414,6.1177-6.6581,5.6368l-63.11-11.1941"/><path d="M487.7059,228.6893l22.6811,6.9386L543.6378,245.8c2.8565.8738,6.5808,1.2626,7.2427,4.8068a6.3271,6.3271,0,0,1,.063,1.4331c-.0447,1.1143.0783-.2474-.0485.3616a6.6286,6.6286,0,0,1-.2178.846,4.4768,4.4768,0,0,1-1.5436,2.1445,3.676,3.676,0,0,1-2.541.6727c.1553.0113.29.0412.0877.0117-.9152-.1339-1.8257-.3239-2.7362-.4854L511.57,249.8489c-9.1343-1.62-18.2615-3.29-27.4045-4.8609-.1567-.027-.3131-.0556-.47-.0833a2.0761,2.0761,0,0,0-2.4831,1.41,2.0359,2.0359,0,0,0,1.41,2.4832l24.3581,4.3205,34.76,6.1655c1.1894.211,2.378.4282,3.5686.633a7.8429,7.8429,0,0,0,7.4493-2.4057,9.0656,9.0656,0,0,0-1.5042-13.25,11.9361,11.9361,0,0,0-3.3785-1.3856L517.3593,233.54l-28.095-8.5949-.4851-.1484c-2.49-.7618-3.5546,3.1339-1.0733,3.893Z"/><circle class="cls-6" cx="484.2678" cy="235.2625" r="15.5931"/><path d="M497.8424,235.2625a13.573,13.573,0,1,1-11.051-13.3464,13.7053,13.7053,0,0,1,11.051,13.3464c.0284,2.5963,4.0657,2.603,4.0372,0a17.6149,17.6149,0,1,0-14.18,17.2706,17.8533,17.8533,0,0,0,14.18-17.2706C501.908,232.6639,497.8708,232.662,497.8424,235.2625Z"/><path d="M497.8424,235.2625a13.573,13.573,0,1,1-11.051-13.3464,13.7053,13.7053,0,0,1,11.051,13.3464c.0284,2.5963,4.0657,2.603,4.0372,0a17.6149,17.6149,0,1,0-14.18,17.2706,17.8533,17.8533,0,0,0,14.18-17.2706C501.908,232.6639,497.8708,232.662,497.8424,235.2625Z"/><circle class="cls-6" cx="442.4759" cy="226.8354" r="15.2301"/><circle class="cls-2" cx="438.119" cy="224.6569" r="4.0129"/><circle class="cls-2" cx="478.7835" cy="233.3707" r="4.0129"/><path d="M455.6874,226.8354a13.21,13.21,0,1,1-10.6787-12.9742,13.3306,13.3306,0,0,1,10.6787,12.9742c.0292,2.5961,4.0665,2.603,4.0372,0a17.2509,17.2509,0,1,0-13.8085,16.8991,17.4913,17.4913,0,0,0,13.8085-16.8991C459.7538,224.2367,455.7166,224.2349,455.6874,226.8354Z"/><path class="cls-2" d="M539.1377,315.1026s-3.6953,2.1959-12.4091,2.9221"/><path d="M538.1189,313.36a7.2215,7.2215,0,0,1-.7.3485c-.3132.1416-.361.1413.03-.0082-.1628.0623-.3233.1309-.4861.1932-.4281.1636-.8616.3129-1.2983.4517a34.612,34.612,0,0,1-3.7278.9449,41.2408,41.2408,0,0,1-5.2075.7164,2.0186,2.0186,0,1,0,0,4.0372,45.9275,45.9275,0,0,0,10.0086-1.8055,16.6671,16.6671,0,0,0,3.4194-1.3922,2.0189,2.0189,0,0,0-2.0377-3.486Z"/><line class="cls-7" x1="478.4113" y1="263.1059" x2="505.8789" y2="267.5242"/><path d="M477.8746,265.0524l24.02,3.8638,3.4475.5545a2.081,2.081,0,0,0,2.4832-1.41,2.0345,2.0345,0,0,0-1.41-2.4831l-24.02-3.8637-3.4475-.5546a2.081,2.081,0,0,0-2.4831,1.41,2.0344,2.0344,0,0,0,1.41,2.4831Z"/><path d="M469.6723,277.3978c.03-.0144.06-.0278.0895-.0416.3671-.17-.5086.1942-.192.08.3191-.1154.6331-.24.9571-.3422.4785-.151.9647-.2774,1.4555-.3811.2812-.0594.564-.1059.847-.1555.5426-.095-.4346.0341.1338-.0177.177-.0161.3531-.0367.53-.05a15.2939,15.2939,0,0,1,2.1213-.02,9.8618,9.8618,0,0,1,2.251.3689,14.0308,14.0308,0,0,1,5.0717,2.5841,2.03,2.03,0,0,0,2.7619-.7242,2.07,2.07,0,0,0-.7242-2.7618,16.99,16.99,0,0,0-17.3407-2.0246,2.0379,2.0379,0,0,0-.7241,2.7619,2.0608,2.0608,0,0,0,2.7618.7241Z"/><path d="M442.06,273.3841c5.0318-1.5461,12.8053-.3092,13.5939,5.9873.3647,2.9123-1.2674,5.9108-2.86,8.2261a25.7914,25.7914,0,0,1-3.98,4.4349c-.8122.7359-1.6957,1.2761-2.0334,2.3679a5.9782,5.9782,0,0,0-.2677,2.0673c.23,4.0395,4.7765,4.71,7.9741,4.76,2.5989.04,2.6-3.997,0-4.0372a8.363,8.363,0,0,1-3.84-.692.2036.2036,0,0,1-.1021-.1117,2.9575,2.9575,0,0,1,.2078-1.16l-.5191.8907c4.51-3.7144,9.1025-9.1917,9.482-15.3091a11.25,11.25,0,0,0-2.9732-8.137c-2.2334-2.4555-5.2588-3.3885-8.47-3.71a19.0225,19.0225,0,0,0-7.2859.53c-2.4762.7609-1.42,4.6592,1.0732,3.893Z"/><circle cx="446.7132" cy="282.1955" r="2.7756"/><path d="M448.4916,282.2913a3.1044,3.1044,0,0,1-.0762.3761c-.02.0729-.0454.1434-.0688.2151-.0606.186.0157-.0173.0167-.0346a.9447.9447,0,0,1-.1756.3228,1.1285,1.1285,0,0,1-.1244.18c.1117-.1149.0506-.0666-.0283.0183-.0545.0588-.1836.2258-.2625.2483.165-.047.0924-.062.0025-.0055-.051.032-.1.0667-.152.0976s-.1065.0569-.1585.0873c-.0579.0339-.1852.1327.01.0036a1.3943,1.3943,0,0,1-.4188.13.5956.5956,0,0,1-.1448.0287l.1212-.0151q-.0744.0084-.1491.013c-.1273.0077-.2527,0-.38-.0032-.0673-.0015-.1658.0253.0374.0087a.8388.8388,0,0,1-.2258-.0458q-.0735-.018-.1462-.04c-.03-.009-.2986-.1183-.16-.0527.1489.07-.0693-.0379-.08-.0437-.0542-.0285-.1071-.059-.1593-.0911s-.1014-.0671-.1524-.1005c-.1873-.123.0827.1089.0041.001a3.0466,3.0466,0,0,0-.2344-.226c-.0394-.0428-.2141-.1891-.0267-.0181a.9617.9617,0,0,1-.1227-.1786c-.04-.0636-.1765-.2352-.1729-.3178l.0442.1076q-.0272-.0677-.0506-.1366c-.0157-.0461-.03-.0928-.0435-.14-.02-.071-.0328-.1433-.0514-.2145-.0176-.0676-.0705-.15.0017.0484a1.3525,1.3525,0,0,1-.0146-.4522c.0006-.0125.0237-.2642.0039-.0964s.0178-.0808.0207-.0942c.0271-.1239.066-.2427.1052-.3631.0607-.1859-.0157.0174-.0167.0347a.68.68,0,0,1,.1005-.197q.0359-.0639.0752-.1259t.0813-.1212q.0981-.1335-.0246.0316c.018-.0836.1891-.2061.25-.2619.0234-.0215.0843-.0894.1088-.0952l-.0907.0685q.0579-.0432.118-.0834c.0906-.06.1869-.11.2807-.1645.0579-.0338.1852-.1326-.01-.0036a.8469.8469,0,0,1,.2061-.0732c.0756-.0235.28-.1147.3575-.0856l-.1212.0151q.0743-.0086.149-.013c.05-.003.1006-.0047.1509-.005.0767,0,.1524.0055.2289.0082.1959.0067-.014-.0111-.0373-.0087a1.2611,1.2611,0,0,1,.4436.1089c.0139.0047.2357.0995.0883.03-.1412-.0668.1208.0654.1448.0789q.0639.0359.1259.0751t.1212.0814q.1335.0981-.0316-.0246c.0966.0208.2184.2093.2861.2765.0438.0435.1729.1538.0025-.0088a.9419.9419,0,0,1,.1227.1786q.058.0916.1087.1878c.0289.0549.1569.2293.02.0223a1.3947,1.3947,0,0,1,.13.4187.6023.6023,0,0,1,.0286.1449q-.0259-.219-.0076-.0469.0066.075.009.15a3.0309,3.0309,0,0,1-.0228.4587,1.0114,1.0114,0,0,0,1.0093,1.0093,1.0392,1.0392,0,0,0,1.0093-1.0093,3.7816,3.7816,0,0,0-1.99-3.7086,3.8462,3.8462,0,0,0-4.3662.59,3.7825,3.7825,0,1,0,6.32,3.3865,1.0372,1.0372,0,0,0-.705-1.2416A1.0205,1.0205,0,0,0,448.4916,282.2913Z"/><path d="M469.2171,285.416c.3348-.1658-.3585.1431-.2785.1143.1545-.0558.3065-.1159.4634-.1652a7.37,7.37,0,0,1,.7672-.1958c.1071-.0215.6274-.0994.2049-.043-.4109.0549-.06.01.0311.0008s.18-.0159.27-.0214a7.6408,7.6408,0,0,1,1.1362.0146c.17.015.4875.1211-.109-.022.1075.0258.2212.035.33.0559q.3147.0606.6232.1481c.2179.0616.4287.14.6428.2129.3983.136-.3633-.1755-.0046-.003.1215.0584.243.1153.3626.1776.2516.131.4964.2753.7336.4307q.1563.1025.3079.2116.0938.0663.1851.1356-.3034-.2355-.0379-.0216a2.1741,2.1741,0,0,0,1.4274.5913,2.0187,2.0187,0,0,0,1.4274-3.446,10.17,10.17,0,0,0-6.9319-2.528,9.093,9.093,0,0,0-3.5888.8666,2.031,2.031,0,0,0-.7241,2.7619,2.0691,2.0691,0,0,0,2.7618.7241Z"/></svg>